PathFileType	4	(X/Y/Z)	C:/Users/beibeiliu/ov580/test_trc/User2\sequence.35_training_dense_right.trc
DataRate	CameraRate	NumFrames	NumMarkers	Units	OrigDataRate	OrigDataStartFrame	OrigNumFrames
120	120	22	19	mm	120	109	289
Frame#	Time	ThumbCMC			ThumbMCP			ThumbIP			ThumbTip			IndexMCP			IndexPIP			IndexTip			MiddleMCP			MiddlePIP			MiddleTip			RingMCP			RingPIP			RingTip			PinkyMCP			PinkyPIP			PinkyTip			BackHand1			BackHand2			BackHand3	
		X0	Y0	Z0	X1	Y1	Z1	X2	Y2	Z2	X3	Y3	Z3	X4	Y4	Z4	X5	Y5	Z5	X6	Y6	Z6	X7	Y7	Z7	X8	Y8	Z8	X9	Y9	Z9	X10	Y10	Z10	X11	Y11	Z11	X12	Y12	Z12	X13	Y13	Z13	X14	Y14	Z14	X15	Y15	Z15	X16	Y16	Z16	X17	Y17	Z17	X18	Y18	Z18	
108	0.9	83.8448	-32.5468	82.3279	66.8194	-19.2161	51.4846	37.9918	-22.039	29.5056	17.3817	-45.648	34.2295	41.3774	-79.6109	21.7882	5.53228	-76.0123	13.3984	-10.709	-52.9489	35.4912	32.2524	-96.7673	28.0277	-6.83223	-92.3113	25.1369	-16.2761	-62.8638	50.8618	17.7306	-108.948	42.116	-12.4928	-99.0788	43.5372	-16.1698	-70.2733	67.4009	16.2915	-116.974	65.1816	-9.79689	-104.831	58.6097	-22.0815	-76.9892	74.4899	68.2299	-104.794	86.5158	91.0781	-93.745	106.06	92.1198	-72.4258	75.8416	
109	0.908333	83.9606	-29.0728	81.2976	66.6663	-17.5581	55.4115	35.3548	-24.6987	31.2566	16.6743	-47.1597	35.7837	43.3333	-75.9522	21.5098	10.432	-76.309	12.0032	-13.0208	-55.0326	35.3188	28.6879	-99.2326	26.8799	-4.40205	-88.4017	22.0718	-18.7061	-66.0312	51.5098	20.1841	-110.937	44.0455	-9.01515	-102.679	41.3283	-17.3042	-73.8065	63.4974	21.4946	-115.752	64.2659	-10.5786	-105.194	58.2904	-19.7323	-78.7695	72.3524	70.3152	-102.06	84.8408	91.6408	-95.0283	108.1	90.6444	-69.2582	78.9186	
110	0.916667	81.9854	-27.9161	78.8733	62.8748	-15.5609	55.0054	35.122	-19.8819	32.2577	13.7039	-47.6099	32.7716	43.1618	-77.852	24.1322	8.3562	-76.4544	14.1777	-12.6946	-56.3155	32.2488	34.9296	-94.7048	25.7489	-6.07101	-89.4893	24.0762	-19.3027	-65.6421	51.3369	25.5374	-109.57	43.8684	-7.73041	-98.4787	37.7932	-16.6413	-75.9338	58.4764	23.8142	-116.988	64.0538	-5.57696	-105.473	55.669	-22.6254	-82.4212	72.1685	72.4739	-101.256	85.7767	92.8825	-90.2145	110.209	92.1951	-68.0033	75.6329	
111	0.925	79.0638	-28.7227	82.387	61.0454	-14.9945	58.5618	34.1472	-19.262	34.9125	14.0559	-45.5984	34.6675	43.9565	-76.5732	22.0449	9.97671	-76.5417	12.3856	-11.7114	-57.3973	31.7262	35.9494	-96.5205	26.2667	-0.337971	-90.9559	19.4684	-18.9018	-65.8496	50.0766	27.3602	-110.77	42.3431	-3.15909	-101.406	36.4595	-16.8869	-76.7237	60.0193	28.1037	-114.836	64.8112	-3.9214	-107.589	55.7519	-20.1607	-86.5994	70.0111	74.5416	-97.6527	79.622	93.7362	-92.1726	108.545	95.0472	-64.0302	78.7867	
112	0.933333	78.2484	-26.9817	82.6856	57.9968	-18.1851	58.2806	31.4122	-22.5581	36.629	12.2677	-49.447	34.8991	45.5583	-73.0719	20.7899	11.0995	-78.1626	12.8248	-9.96241	-63.5331	30.4564	35.4296	-94.6077	21.7049	1.43017	-95.449	19.5607	-18.709	-69.0431	45.1204	30.0351	-108.982	37.6311	-2.72862	-103.316	35.1652	-16.6728	-79.7198	60.2196	29.0713	-117.937	63.3624	-4.82165	-111.667	55.6334	-18.6775	-87.648	70.7288	77.0488	-100.447	79.0519	95.7072	-90.1082	106.237	92.1579	-62.8258	77.5382	
113	0.941667	78.3696	-23.8673	84.3964	55.9038	-12.3668	59.1132	28.3183	-25.586	34.152	11.2524	-49.9524	34.2955	47.1912	-75.6649	21.1033	16.283	-77.3723	9.04334	-11.6867	-64.9206	33.3016	39.5288	-98.4705	25.5972	-0.129083	-96.4628	20.92	-17.4723	-75.8992	42.8185	32.1631	-109.061	36.8723	-0.85756	-109.077	35.673	-15.6253	-81.7748	58.5164	29.4592	-120.001	59.547	-1.58629	-110.407	52.4713	-18.0609	-92.8707	68.4912	77.386	-98.2632	78.0318	96.6407	-86.355	108.208	93.5797	-60.5519	79.1626	
114	0.95	75.0204	-25.6839	82.7223	54.2426	-15.5513	60.6658	28.5148	-27.314	39.7257	13.0263	-55.2711	35.4962	47.4782	-75.2679	19.0178	15.1529	-80.3209	10.4404	-9.93918	-68.3993	31.887	40.7	-100.829	22.5447	6.13992	-97.1065	16.7021	-15.4307	-77.1846	41.8903	34.6774	-110.323	34.5815	-0.00609731	-108.735	34.2379	-13.9158	-88.9234	55.7538	33.947	-123.214	59.6048	-0.0197322	-115.023	52.0238	-15.8575	-96.8476	67.5946	81.9133	-98.9653	81.5417	98.045	-87.0137	102.472	93.869	-59.1306	78.8668	
115	0.958333	75.1027	-24.7943	86.1357	51.8047	-14.724	59.4744	26.0775	-26.6282	37.2976	13.0026	-55.8586	37.0269	49.9814	-77.8325	20.4222	16.1338	-81.7796	8.97301	-9.7817	-66.0058	29.7385	43.6999	-98.5384	20.2806	3.3268	-99.5314	18.6296	-14.3167	-75.1316	44.609	38.457	-114.138	37.8969	5.45574	-110.162	30.895	-11.4692	-90.7674	55.8046	35.9805	-121.552	56.2039	3.95672	-114.684	49.9111	-11.9653	-95.8277	64.3087	82.8633	-98.0695	80.514	98.5702	-86.5793	105.263	95.5446	-63.6202	76.345	
116	0.966667	73.5764	-29.7882	83.5791	50.1424	-17.9191	58.7623	24.004	-28.9877	34.5685	12.4052	-55.372	33.9175	50.9596	-77.6371	18.4497	15.9311	-81.3052	7.08745	-7.97468	-70.8501	32.2029	44.3234	-97.3768	17.3268	5.82522	-100.178	18.6559	-11.4996	-80.5787	46.3518	38.2168	-113.602	32.3717	7.09018	-113.332	30.3858	-8.14323	-92.8427	53.2589	39.0796	-121.304	53.3317	8.98125	-119.777	47.9123	-8.93399	-96.0355	63.8639	83.5935	-98.0353	74.7226	102.855	-85.3588	105.291	97.7809	-59.3179	76.9083	
117	0.975	72.8274	-30.4268	83.7887	50.5687	-16.723	59.0827	26.8563	-32.6684	37.2986	12.7422	-59.4849	30.6744	50.4979	-76.3725	13.4668	19.139	-81.2929	6.29949	-5.97423	-71.6102	29.8572	46.3947	-98.0101	17.7307	12.3933	-99.5734	13.5768	-9.13768	-81.0638	45.0108	41.0161	-116.188	33.1972	10.0258	-113.362	30.0998	-6.72328	-89.6372	54.4535	38.4351	-125.619	52.8174	9.93285	-120.997	47.8311	-8.59185	-96.7742	65.1306	85.4208	-97.3862	74.3237	100.798	-88.9816	106.566	95.2145	-61.5345	73.3467	
118	0.983333	75.1025	-26.8319	84.5662	51.9326	-20.87	57.0808	27.7511	-28.9421	35.0279	15.5927	-57.6609	28.8074	54.2374	-74.695	16.0915	21.9095	-81.6526	5.59656	-3.94483	-70.1436	28.767	49.5602	-96.4819	19.7347	12.9935	-99.7135	14.1941	-7.06793	-83.3657	46.8191	40.2754	-116.872	31.7388	7.74184	-112.698	32.5511	-5.24637	-89.0339	53.507	42.9331	-124.099	55.9363	6.33415	-120.324	51.5445	-6.30215	-99.19	64.7866	88.8201	-98.3079	76.7437	102.075	-88.5323	105.584	97.8288	-62.1311	73.263	
119	0.991667	74.6541	-27.8916	83.3617	54.3061	-19.2207	56.5548	32.3864	-29.6668	33.672	17.1459	-53.5094	25.4373	55.4388	-73.4666	16.1001	21.7312	-82.6984	8.57846	-1.00011	-70.2365	31.075	48.3114	-97.5249	16.722	11.8068	-98.1031	15.4665	-4.91677	-83.6589	46.3782	43.8535	-112.16	32.3405	8.76058	-111.263	32.4932	-2.33116	-89.4293	52.7612	43.32	-125.737	57.1563	8.28148	-117.001	50.6471	-4.96685	-95.7836	66.8682	88.2347	-95.7118	77.384	103.239	-86.1641	101.78	96.9798	-58.5107	74.285	
120	1	77.0603	-26.2064	83.2081	57.513	-18.6255	52.728	35.5795	-29.0113	29.7486	20.0705	-48.9077	19.0602	52.0759	-76.6539	13.9954	21.118	-78.8902	7.5662	0.898688	-69.1251	33.2379	47.8536	-94.7456	15.4879	13.8386	-98.2868	15.3402	-4.82525	-79.3139	47.1763	43.7003	-112.878	32.6981	11.3608	-112.099	31.2112	-1.65382	-89.6041	55.7481	42.318	-125.189	57.0772	10.3178	-118.987	51.3034	-3.45794	-93.1888	68.8518	87.7703	-96.3039	73.1483	105.211	-84.2908	105.012	99.805	-60.1359	74.119	
121	1.00833	78.5872	-27.6304	81.0266	60.4182	-17.5552	56.968	39.1412	-28.6793	25.95	22.2733	-44.0342	12.7601	54.2393	-76.5651	15.7994	18.882	-76.535	8.99308	1.51809	-65.4448	37.7463	50.1288	-99.2029	20.8248	13.1628	-97.6055	15.9259	-1.99053	-77.4942	51.9091	43.0241	-116.695	34.5519	9.35009	-110.738	34.9486	1.40694	-84.1618	57.6929	40.0557	-125.3	56.0658	9.9986	-116.253	51.305	-2.49267	-91.9691	71.2734	88.5027	-99.0095	75.0756	102.172	-88.92	105.071	97.8587	-65.0419	74.7452	
122	1.01667	80.2403	-28.6827	79.0608	62.6064	-19.3613	53.3576	42.9452	-28.1513	25.4091	27.0259	-45.1361	10.2018	51.8255	-76.7794	12.904	17.8171	-77.5701	10.1584	3.17263	-65.0335	34.6591	49.9458	-99.2118	20.7057	12.6384	-99.4682	19.6507	-0.685924	-75.5432	51.6705	40.1475	-117.98	34.9981	8.34089	-109.778	35.7595	2.64312	-85.0646	62.4885	38.1001	-123.45	54.5223	9.95044	-116.258	53.0505	0.364482	-91.2075	76.748	88.4548	-103.53	75.7697	103.229	-90.313	108.944	101.545	-61.6795	76.0245	
123	1.025	81.2569	-29.5699	80.877	64.4802	-22.1436	49.597	46.539	-29.013	25.6642	27.575	-39.3657	3.61906	52.168	-78.5743	13.4286	19.1371	-78.8144	9.35427	3.98697	-64.0654	42.3103	46.7175	-102.105	21.2805	9.55607	-96.9032	21.783	0.572271	-74.82	52.0425	37.7694	-118.406	34.0838	7.75648	-108.5	37.0085	4.49897	-85.7518	62.8945	39.055	-128.295	59.0754	4.82135	-115.171	58.2739	0.302094	-90.4941	77.2421	87.6924	-105.111	78.2595	103.923	-90.7242	107.293	99.7614	-64.2904	76.1773	
124	1.03333	79.7351	-33.4224	80.2977	66.1199	-23.9935	53.4018	46.5795	-28.7205	22.9555	30.1932	-40.5745	5.44043	49.457	-80.2362	13.1171	17.6656	-79.6935	12.3503	4.70543	-62.9471	40.146	44.0028	-99.9752	18.2285	10.1926	-99.8757	22.3271	1.00158	-75.7974	56.6836	37.3294	-119.714	37.6588	6.4909	-111.417	39.5813	6.25729	-83.0875	64.4258	35.1819	-129.694	58.3327	4.9304	-115.411	59.4002	3.3206	-90.7477	76.0877	85.7205	-103.056	76.9483	103.433	-87.7725	106.093	99.3041	-63.8078	74.644	
125	1.04167	80.31	-32.5984	81.1791	64.6991	-24.0467	50.9711	46.9927	-28.1572	24.122	31.4249	-38.2216	2.33776	51.3864	-79.2188	15.623	18.2974	-78.8452	11.0184	4.79438	-62.8174	43.0578	45.2459	-103.227	22.0182	6.62679	-94.7904	22.502	2.21902	-75.1163	59.1324	37.384	-117.078	35.657	4.93709	-110.222	42.3079	6.07125	-85.0179	63.7187	38.9192	-125.701	59.1125	8.47279	-118.562	55.8483	2.94687	-93.1446	74.5732	87.7082	-106.664	77.4311	101.501	-91.4712	105.895	98.0869	-65.2595	74.0792	
126	1.05	78.4992	-34.1146	80.4106	64.2537	-25.116	53.509	46.849	-27.5304	22.4981	30.9151	-36.5992	5.65323	50.9299	-77.8846	14.7549	15.6225	-81.3499	14.6323	3.91362	-67.5432	44.7809	43.1357	-104.152	20.4365	6.93304	-98.3614	24.3866	1.00135	-79.1035	58.3833	35.9829	-121.105	36.7016	6.9537	-111.49	39.7019	5.74237	-87.1063	68.2499	39.008	-129.12	59.8417	6.14893	-121.013	58.6058	2.41041	-93.3797	74.8861	87.6888	-103.726	75.8122	102.635	-93.5379	106.934	99.5623	-66.8065	72.8154	
127	1.05833	78.7609	-33.3225	79.8006	62.5511	-28.6366	53.0562	44.4827	-27.3998	25.5957	28.8006	-37.0296	4.96774	49.3939	-81.8496	16.3453	15.1816	-78.7546	12.226	2.82818	-64.8197	43.8693	45.2553	-100.864	19.6865	6.82648	-99.2749	25.1738	0.556505	-77.609	58.5131	38.674	-117.657	34.8947	5.03956	-111.55	40.8027	4.73322	-90.1809	66.7402	37.3275	-131.753	56.0842	5.97063	-118.981	56.8774	0.471859	-95.4359	76.2374	86.0855	-105.779	76.5662	102.562	-88.4993	107.848	97.8228	-67.2137	77.7214	
128	1.06667	78.411	-29.1278	80.4869	61.2589	-24.1	56.101	41.7098	-28.0991	25.9524	24.7464	-37.5976	3.04407	49.9548	-79.4078	13.8776	19.287	-83.4904	11.4807	2.74189	-69.8094	40.6051	48.0666	-100.836	21.6249	7.83078	-98.3016	21.3883	-0.245248	-78.6022	56.9279	39.3186	-118.203	32.7258	7.19586	-112.314	37.7578	5.96889	-88.2116	65.2035	39.1328	-132.255	56.5117	10.2934	-122.298	52.4701	2.56405	-98.536	70.0079	86.1798	-104.83	75.4316	104.291	-91.7986	105.628	97.9176	-65.4463	77.5502	
129	1.075	75.1959	-32.1877	79.583	58.6498	-23.9705	53.4594	38.4458	-25.0305	24.7827	20.9889	-35.8593	6.4498	48.652	-82.4272	13.6527	18.582	-82.2675	9.73907	1.9815	-71.3766	40.0484	46.827	-101.269	17.0459	9.24762	-102.528	21.9072	-0.305185	-79.0618	54.4044	43.1769	-118.223	33.3334	12.0719	-117.135	34.9599	5.49102	-91.8479	64.8138	45.7416	-127.673	56.0261	9.52572	-124.146	55.3452	1.79821	-101.654	74.6578	89.2457	-101.494	75.1385	104.282	-85.9857	105.684	98.84	-62.2754	74.2004	
